<svg xmlns="http://www.w3.org/2000/svg" viewBox="0 0 117.0 105.8" role="img" aria-label="Atalaya"><defs><linearGradient id="v-top" x1="0" y1="0" x2="1" y2="1"><stop offset="0" style="stop-color:#7B8CA0"/><stop offset="1" style="stop-color:#566676"/></linearGradient><linearGradient id="v-left" x1="0" y1="0" x2="0" y2="1"><stop offset="0" style="stop-color:#46525F"/><stop offset="1" style="stop-color:#2C353E"/></linearGradient><linearGradient id="v-right" x1="0" y1="0" x2="0" y2="1"><stop offset="0" style="stop-color:#27303A"/><stop offset="1" style="stop-color:#0F1418"/></linearGradient><linearGradient id="v-amber" x1="0" y1="0" x2="1" y2="1"><stop offset="0" style="stop-color:#FFD24D"/><stop offset="1" style="stop-color:#E39A00"/></linearGradient><radialGradient id="v-glow"><stop offset="0" stop-color="#F2A900" stop-opacity=".55"/><stop offset="1" stop-color="#F2A900" stop-opacity="0"/></radialGradient></defs><g transform="translate(26.5 0)"><circle cx="44.20" cy="10.42" r="13" fill="url(#v-glow)"/><polygon points="34.81,38.50 44.20,43.92 44.20,16.83 34.81,11.42" fill="url(#v-left)"/><polygon points="44.20,43.92 53.58,38.50 53.58,11.42 44.20,16.83" fill="url(#v-right)"/><polygon points="34.81,11.42 44.20,16.83 53.58,11.42 44.20,6.00" fill="url(#v-amber)" stroke="rgba(255,255,255,.38)" stroke-width=".6" stroke-linejoin="round"/><polygon points="22.62,45.54 32.00,50.96 32.00,34.03 22.62,28.61" fill="url(#v-left)"/><polygon points="32.00,50.96 41.38,45.54 41.38,28.61 32.00,34.03" fill="url(#v-right)"/><polygon points="22.62,28.61 32.00,34.03 41.38,28.61 32.00,23.20" fill="url(#v-top)" stroke="rgba(255,255,255,.38)" stroke-width=".6" stroke-linejoin="round"/><polygon points="10.42,52.58 19.80,58.00 19.80,49.88 10.42,44.46" fill="url(#v-left)"/><polygon points="19.80,58.00 29.19,52.58 29.19,44.46 19.80,49.88" fill="url(#v-right)"/><polygon points="10.42,44.46 19.80,49.88 29.19,44.46 19.80,39.04" fill="url(#v-top)" stroke="rgba(255,255,255,.38)" stroke-width=".6" stroke-linejoin="round"/></g><path d="M18.889999999999993 97.46 18.107999999999997 94.128Q18.073999999999998 93.99199999999999 17.937999999999995 93.99199999999999H11.579999999999995Q11.443999999999996 93.99199999999999 11.409999999999995 94.128L10.627999999999995 97.46Q10.525999999999996 97.8 10.185999999999995 97.8H6.071999999999995Q5.629999999999995 97.8 5.731999999999995 97.358L11.851999999999995 74.34Q11.953999999999995 74.0 12.327999999999996 74.0H17.257999999999996Q17.631999999999998 74.0 17.733999999999995 74.34L23.853999999999996 97.358L23.887999999999995 97.494Q23.887999999999995 97.8 23.513999999999996 97.8H19.365999999999996Q18.991999999999997 97.8 18.889999999999993 97.46ZM12.497999999999994 90.286H16.985999999999997Q17.053999999999995 90.286 17.121999999999996 90.235Q17.189999999999998 90.184 17.155999999999995 90.082L14.809999999999995 80.222Q14.775999999999996 80.086 14.707999999999995 80.086Q14.639999999999995 80.086 14.605999999999995 80.222L12.327999999999996 90.082Q12.293999999999995 90.184 12.361999999999995 90.235Q12.429999999999996 90.286 12.497999999999994 90.286ZM35.141999999999996 83.928H32.524Q32.354 83.928 32.354 84.098V91.74799999999999Q32.354 92.80199999999999 32.778999999999996 93.261Q33.204 93.72 34.088 93.68599999999999H34.768Q34.938 93.68599999999999 35.057 93.80499999999999Q35.176 93.92399999999999 35.176 94.094V97.392Q35.176 97.8 34.768 97.8Q34.19 97.834 33.068 97.834Q30.381999999999998 97.834 29.073 96.95Q27.764 96.066 27.764 93.618V84.098Q27.764 83.928 27.593999999999998 83.928H26.029999999999998Q25.86 83.928 25.741 83.809Q25.622 83.69 25.622 83.52V80.732Q25.622 80.562 25.741 80.443Q25.86 80.324 26.029999999999998 80.324H27.593999999999998Q27.764 80.324 27.764 80.154V76.244Q27.764 76.074 27.883 75.955Q28.002 75.836 28.171999999999997 75.836H31.945999999999998Q32.116 75.836 32.235 75.955Q32.354 76.074 32.354 76.244V80.154Q32.354 80.324 32.524 80.324H35.141999999999996Q35.312 80.324 35.431 80.443Q35.55 80.562 35.55 80.732V83.52Q35.55 83.69 35.431 83.809Q35.312 83.928 35.141999999999996 83.928ZM52.04 85.798V97.392Q52.04 97.562 51.921 97.681Q51.802 97.8 51.632000000000005 97.8H47.653999999999996Q47.484 97.8 47.365 97.681Q47.246 97.562 47.246 97.392V96.44Q47.246 96.338 47.178 96.304Q47.11 96.27 47.042 96.372Q45.75 98.072 43.03 98.072Q40.718 98.072 39.17100000000001 96.882Q37.624 95.692 37.624 92.904Q37.624 87.362 44.56 87.362H47.076Q47.246 87.362 47.246 87.192V86.41Q47.246 85.39 46.650999999999996 84.77799999999999Q46.056 84.166 45.036 84.166Q44.22 84.166 43.676 84.53999999999999Q43.132 84.914 42.996 85.56Q42.894 85.89999999999999 42.52 85.89999999999999L38.406 85.66199999999999Q38.236 85.66199999999999 38.117 85.56Q37.998 85.458 38.032 85.288Q38.236 82.942 40.157 81.49699999999999Q42.078 80.05199999999999 45.002 80.05199999999999Q47.042 80.05199999999999 48.64 80.78299999999999Q50.238 81.514 51.138999999999996 82.823Q52.04 84.13199999999999 52.04 85.798ZM47.246 92.088V90.66Q47.246 90.49 47.076 90.49H45.172Q43.914 90.49 43.2 91.03399999999999Q42.486000000000004 91.578 42.486000000000004 92.598Q42.486000000000004 93.482 43.03 93.958Q43.574 94.434 44.458 94.434Q45.614000000000004 94.434 46.43000000000001 93.788Q47.246 93.142 47.246 92.088ZM55.236000000000004 97.392V74.40799999999999Q55.236000000000004 74.238 55.355000000000004 74.119Q55.474000000000004 74.0 55.644 74.0H59.622Q59.792 74.0 59.911 74.119Q60.03 74.238 60.03 74.40799999999999V97.392Q60.03 97.562 59.911 97.681Q59.792 97.8 59.622 97.8H55.644Q55.474000000000004 97.8 55.355000000000004 97.681Q55.236000000000004 97.562 55.236000000000004 97.392ZM77.132 85.798V97.392Q77.132 97.562 77.013 97.681Q76.894 97.8 76.724 97.8H72.74600000000001Q72.57600000000001 97.8 72.45700000000001 97.681Q72.33800000000001 97.562 72.33800000000001 97.392V96.44Q72.33800000000001 96.338 72.27000000000001 96.304Q72.20200000000001 96.27 72.134 96.372Q70.84200000000001 98.072 68.122 98.072Q65.81 98.072 64.263 96.882Q62.71600000000001 95.692 62.71600000000001 92.904Q62.71600000000001 87.362 69.652 87.362H72.168Q72.33800000000001 87.362 72.33800000000001 87.192V86.41Q72.33800000000001 85.39 71.74300000000001 84.77799999999999Q71.14800000000001 84.166 70.128 84.166Q69.31200000000001 84.166 68.768 84.53999999999999Q68.224 84.914 68.08800000000001 85.56Q67.986 85.89999999999999 67.61200000000001 85.89999999999999L63.498000000000005 85.66199999999999Q63.328 85.66199999999999 63.209 85.56Q63.09 85.458 63.12400000000001 85.288Q63.328 82.942 65.249 81.49699999999999Q67.17 80.05199999999999 70.09400000000001 80.05199999999999Q72.134 80.05199999999999 73.732 80.78299999999999Q75.33000000000001 81.514 76.23100000000001 82.823Q77.132 84.13199999999999 77.132 85.798ZM72.33800000000001 92.088V90.66Q72.33800000000001 90.49 72.168 90.49H70.26400000000001Q69.006 90.49 68.292 91.03399999999999Q67.578 91.578 67.578 92.598Q67.578 93.482 68.12200000000001 93.958Q68.66600000000001 94.434 69.55000000000001 94.434Q70.706 94.434 71.522 93.788Q72.33800000000001 93.142 72.33800000000001 92.088ZM80.12400000000001 104.158V101.03Q80.12400000000001 100.622 80.49800000000002 100.622Q82.436 100.588 83.269 100.06099999999999Q84.10200000000002 99.53399999999999 84.34000000000002 97.902L84.30600000000001 97.698L79.41000000000001 80.76599999999999L79.37600000000002 80.63Q79.37600000000002 80.28999999999999 79.75000000000001 80.28999999999999H84.03400000000002Q84.40800000000002 80.28999999999999 84.47600000000001 80.66399999999999L86.686 91.238Q86.72000000000001 91.374 86.78800000000001 91.374Q86.85600000000001 91.374 86.89000000000001 91.238L89.10000000000001 80.66399999999999Q89.16800000000002 80.28999999999999 89.54200000000002 80.28999999999999L93.75800000000001 80.324Q93.96200000000002 80.324 94.04700000000003 80.443Q94.13200000000002 80.562 94.09800000000001 80.76599999999999L88.89600000000002 98.446Q88.14800000000001 100.928 87.31500000000001 102.169Q86.48200000000001 103.41 84.95200000000001 103.988Q83.42200000000001 104.566 80.56600000000002 104.566H80.36200000000001Q80.26000000000002 104.566 80.19200000000001 104.447Q80.12400000000001 104.328 80.12400000000001 104.158ZM110.28200000000001 85.798V97.392Q110.28200000000001 97.562 110.16300000000001 97.681Q110.04400000000001 97.8 109.87400000000001 97.8H105.89600000000002Q105.72600000000001 97.8 105.60700000000001 97.681Q105.48800000000001 97.562 105.48800000000001 97.392V96.44Q105.48800000000001 96.338 105.42000000000002 96.304Q105.35200000000002 96.27 105.284 96.372Q103.99200000000002 98.072 101.272 98.072Q98.96000000000001 98.072 97.41300000000001 96.882Q95.86600000000001 95.692 95.86600000000001 92.904Q95.86600000000001 87.362 102.802 87.362H105.31800000000001Q105.48800000000001 87.362 105.48800000000001 87.192V86.41Q105.48800000000001 85.39 104.89300000000001 84.77799999999999Q104.29800000000002 84.166 103.278 84.166Q102.46200000000002 84.166 101.918 84.53999999999999Q101.37400000000001 84.914 101.23800000000001 85.56Q101.13600000000001 85.89999999999999 100.76200000000001 85.89999999999999L96.64800000000001 85.66199999999999Q96.47800000000001 85.66199999999999 96.35900000000001 85.56Q96.24000000000001 85.458 96.27400000000002 85.288Q96.47800000000001 82.942 98.399 81.49699999999999Q100.32000000000001 80.05199999999999 103.24400000000001 80.05199999999999Q105.284 80.05199999999999 106.882 80.78299999999999Q108.48000000000002 81.514 109.38100000000001 82.823Q110.28200000000001 84.13199999999999 110.28200000000001 85.798ZM105.48800000000001 92.088V90.66Q105.48800000000001 90.49 105.31800000000001 90.49H103.41400000000002Q102.156 90.49 101.44200000000001 91.03399999999999Q100.72800000000001 91.578 100.72800000000001 92.598Q100.72800000000001 93.482 101.27200000000002 93.958Q101.81600000000002 94.434 102.70000000000002 94.434Q103.85600000000001 94.434 104.67200000000001 93.788Q105.48800000000001 93.142 105.48800000000001 92.088Z" fill="#0B1117"/></svg>
