<svg xmlns="http://www.w3.org/2000/svg" viewBox="0 0 120 120" role="img" aria-label="Alzea"><defs><radialGradient id="n-s" cx=".34" cy=".26" r=".9"><stop offset="0" stop-color="#E3EAF1"/><stop offset=".3" stop-color="#8A9DB0"/><stop offset=".68" stop-color="#34424F"/><stop offset="1" stop-color="#0B1014"/></radialGradient><radialGradient id="n-h" cx=".5" cy=".5"><stop offset="0" stop-color="#fff" stop-opacity=".75"/><stop offset="1" stop-color="#fff" stop-opacity="0"/></radialGradient><linearGradient id="n-r" x1="0" y1="0" x2="1" y2="0"><stop offset="0" stop-color="#D98200"/><stop offset=".55" stop-color="#FFC933"/><stop offset="1" stop-color="#FFE9A0"/></linearGradient><radialGradient id="n-a" cx=".35" cy=".3"><stop offset="0" stop-color="#FFF6CC"/><stop offset=".55" stop-color="#F2A900"/><stop offset="1" stop-color="#B96200"/></radialGradient><radialGradient id="n-g"><stop offset="0" stop-color="#F2A900" stop-opacity=".55"/><stop offset="1" stop-color="#F2A900" stop-opacity="0"/></radialGradient></defs><circle cx="100" cy="22" r="17" fill="url(#n-g)"/><g transform="rotate(-22 60 62)"><path d="M4 62A56 15 0 0 1 116 62" fill="none" stroke="url(#n-r)" stroke-width="6.5" stroke-linecap="round" opacity=".62"/></g><circle cx="60" cy="62" r="35" fill="url(#n-s)" stroke="rgba(255,255,255,.2)" stroke-width="1"/><ellipse cx="47" cy="45" rx="15" ry="9.5" transform="rotate(-38 47 45)" fill="url(#n-h)"/><g transform="rotate(-22 60 62)"><path d="M4 62A56 15 0 0 0 116 62" fill="none" stroke="url(#n-r)" stroke-width="6.5" stroke-linecap="round"/><path d="M12 64A50 12 0 0 0 108 64" fill="none" stroke="#fff" stroke-opacity=".38" stroke-width="1.4" stroke-linecap="round" transform="translate(0 -2.4)"/></g><circle cx="100" cy="22" r="9" fill="url(#n-a)"/><ellipse cx="97" cy="18.5" rx="3.4" ry="2.2" fill="#fff" opacity=".6"/></svg>
